<svg width="61" height="60" viewBox="0 0 61 60" fill="none" xmlns="http://www.w3.org/2000/svg">
<path fill-rule="evenodd" clip-rule="evenodd" d="M59.8934 42.5291C58.7153 40.6739 55.842 39.3704 51.3452 38.6469C52.2851 36.9273 52.7819 34.9859 52.7719 32.9883C52.7574 30.0784 51.6696 27.2935 49.709 25.1466C45.1613 20.1681 40.3315 15.3381 35.3532 10.7908C33.2064 8.83027 30.4214 7.74254 27.5115 7.72801C25.5107 7.71571 23.5704 8.2134 21.8518 9.15418C21.6292 7.7791 21.3482 6.53844 21.0123 5.45435C20.8687 4.99064 20.3765 4.7313 19.9128 4.87497C19.4492 5.01864 19.1897 5.51095 19.3334 5.97454C19.7076 7.18227 20.0098 8.61195 20.2352 10.2264C20.0342 10.3848 19.8361 10.5475 19.6447 10.7199C16.7024 13.3683 13.8679 16.2029 11.2197 19.1449C11.0473 19.3365 10.8844 19.5346 10.726 19.7358C6.40532 19.1324 3.52462 17.9998 2.59029 16.5286C2.22373 15.9516 2.16373 15.3058 2.40666 14.5545C2.66869 13.745 3.0813 13.225 3.66853 12.9648C4.6304 12.5385 6.13496 12.7619 8.02004 13.6112C8.35613 13.7626 8.75117 13.6881 9.0091 13.4246C9.26703 13.161 9.333 12.7646 9.17445 12.4318C8.30996 10.6177 8.19781 9.06594 8.88183 8.38203C9.56585 7.69801 11.1175 7.81016 12.9316 8.67465C13.2646 8.83332 13.6611 8.76723 13.9244 8.5093C14.1878 8.25137 14.2624 7.85645 14.111 7.52024C13.2617 5.63517 13.0382 4.13048 13.4647 3.16873C13.7249 2.58162 14.2449 2.16889 15.054 1.90697C15.7948 1.66779 16.9059 1.52717 18.0011 3.06127C18.2831 3.4563 18.832 3.54795 19.227 3.26588C19.622 2.98381 19.7137 2.43502 19.4316 2.03998C17.8043 -0.239895 15.859 -0.200286 14.5133 0.234361C13.2192 0.653188 12.3257 1.40073 11.8578 2.45611C11.3888 3.51408 11.3778 4.83443 11.8223 6.39676C10.0579 5.94548 8.58453 6.19344 7.63906 7.13879C6.69371 8.08414 6.44563 9.55777 6.89703 11.322C5.33469 10.8775 4.01423 10.8885 2.95638 11.3575C1.90088 11.8253 1.15346 12.7188 0.734512 14.0131C0.326232 15.2756 0.451505 16.4389 1.10682 17.4707C2.2849 19.3254 5.15821 20.6287 9.65515 21.3523C8.71507 23.072 8.2182 25.0136 8.22816 27.0114C8.24281 29.9213 9.33054 32.7062 11.2911 34.8531C15.8385 39.8313 20.6685 44.6613 25.6469 49.2089C26.7492 50.2157 28.0124 50.9919 29.4013 51.516C29.8556 51.6875 30.3626 51.4582 30.5338 51.0041C30.7051 50.55 30.4759 50.0429 30.0218 49.8716C29.0443 49.5028 28.1413 48.9843 27.3269 48.3311C36.3019 41.4435 45.3802 37.2935 50.7801 35.1915C50.4145 36.851 49.6278 38.3969 48.4739 39.6792C45.8666 42.5757 43.076 45.3663 40.1796 47.9735C38.2414 49.7173 35.7346 50.6165 33.1187 50.506C32.6317 50.4833 32.224 50.8619 32.2035 51.3468C32.183 51.8317 32.5594 52.2416 33.0443 52.2621C33.2139 52.2693 33.3826 52.2728 33.5514 52.2728C35.5307 52.2728 37.4449 51.7796 39.1474 50.847C39.871 55.3427 41.1744 58.2153 43.0292 59.3932C43.6657 59.7974 44.3519 59.9998 45.0808 59.9998C45.5338 59.9998 46.0031 59.9216 46.4868 59.7651C47.7809 59.3461 48.6744 58.5986 49.1422 57.5431C49.611 56.4854 49.6221 55.1648 49.1776 53.6028C50.9423 54.054 52.4158 53.806 53.3609 52.8609C54.306 51.9158 54.554 50.4423 54.1029 48.6775C55.6649 49.1219 56.9856 49.111 58.0432 48.6421C59.0988 48.1743 59.8463 47.281 60.2654 45.9867C60.6737 44.7241 60.5486 43.5609 59.8934 42.5291ZM20.8207 12.0262C22.6552 10.3755 25.031 9.4748 27.503 9.48558C29.9765 9.49801 32.3435 10.4225 34.1681 12.0887C34.3619 12.2656 34.5546 12.4444 34.7474 12.6232C34.8454 12.7142 34.9435 12.8051 35.0416 12.8958C30.9471 14.2427 20.6976 18.0649 10.09 25.5246C10.3688 23.5949 11.2081 21.7857 12.5265 20.3206C15.1335 17.4242 17.9241 14.6335 20.8207 12.0262ZM10.0189 27.7355C21.7657 19.2077 33.297 15.2658 36.5166 14.2693C38.2427 15.8926 39.9485 17.5468 41.6269 19.2289C37.1205 20.6897 25.0916 25.1476 13.2087 34.3386C13.127 34.25 13.045 34.1615 12.9629 34.0731L12.9628 34.0729L12.9623 34.0724L12.9622 34.0723C12.8373 33.9377 12.7125 33.8031 12.5889 33.6679C11.0882 32.0244 10.1917 29.9405 10.0189 27.7355ZM14.4081 35.634C26.9053 26.0031 39.5174 21.7046 43.0158 20.6335C44.6465 22.2969 46.2482 23.985 47.8188 25.6907C42.9202 27.2895 31.1641 31.753 19.4535 40.852C17.7419 39.1382 16.0581 37.3968 14.4081 35.634ZM25.9955 47.1381C24.2124 45.4923 22.4499 43.8113 20.7137 42.1003C32.9412 32.6576 45.4732 28.2706 49.0702 27.1367C50.3185 28.8278 51.0037 30.8726 51.0144 32.9971C51.0146 33.0463 51.0134 33.0955 51.0121 33.1446V33.1446L51.0111 33.1864L51.0104 33.2209C45.6056 35.2591 35.7217 39.6156 25.9955 47.1381ZM58.593 45.4453C58.3308 46.2548 57.9181 46.7748 57.331 47.035C56.3695 47.4614 54.8649 47.2378 52.9803 46.3888C52.6442 46.2376 52.2493 46.3119 51.9914 46.5752C51.7334 46.8385 51.6673 47.235 51.8258 47.5678C52.6897 49.3823 52.8016 50.9342 52.1179 51.6178C51.4344 52.3014 49.8826 52.1894 48.0679 51.3256C47.7351 51.1673 47.3387 51.2333 47.0754 51.4912C46.8119 51.7491 46.7375 52.1439 46.8889 52.4801C47.7379 54.3647 47.9614 55.8692 47.5352 56.8308C47.2749 57.4179 46.755 57.8308 45.9455 58.0928C45.1944 58.3359 44.5487 58.276 43.9714 57.9095C42.5 56.9751 41.3672 54.0947 40.7638 49.7745C40.9649 49.616 41.1633 49.4528 41.3552 49.2801C44.2973 46.6319 47.1318 43.7974 49.7801 40.8552C49.9526 40.6635 50.1157 40.4652 50.2741 40.2639C54.5945 40.8671 57.475 42 58.4095 43.4715C58.7761 44.0484 58.8361 44.6941 58.593 45.4453ZM49.298 11.3969C49.8268 11.9257 50.5268 12.193 51.2282 12.193C51.8666 12.193 52.5064 11.9715 53.0193 11.5244L55.2734 9.55976C55.8412 9.06487 56.1816 8.34944 56.2074 7.59675C56.2332 6.84405 55.9426 6.10695 55.41 5.57433L54.9256 5.08999C54.393 4.55749 53.6566 4.26663 52.9033 4.29253C52.1506 4.31832 51.4351 4.65874 50.9403 5.2264L48.9757 7.4805C48.0371 8.55722 48.0931 10.1919 49.1032 11.2019L49.298 11.3969ZM50.3007 8.63562L52.2654 6.38152C52.4439 6.17667 52.6918 6.05866 52.9636 6.04941C52.9752 6.04906 52.9865 6.04882 52.998 6.04882C53.2566 6.04882 53.4987 6.14902 53.6827 6.333L54.1671 6.81734C54.3593 7.00952 54.4599 7.26499 54.4507 7.53663C54.4413 7.80827 54.3234 8.05624 54.1186 8.23472L51.8645 10.1994C51.4815 10.5332 50.9002 10.5132 50.5408 10.154L50.3459 9.95913C49.9868 9.59995 49.9668 9.01858 50.3007 8.63562ZM43.1831 8.37105L42.9169 8.29968C41.5372 7.93007 40.6714 6.54246 40.9459 5.14054L41.5203 2.20617C41.6651 1.46707 42.1145 0.814571 42.7534 0.4159C43.3924 0.0172284 44.176 -0.0996075 44.9034 0.0952752L45.565 0.27258C46.2924 0.467462 46.9127 0.960587 47.2667 1.62527C47.6208 2.29008 47.6837 3.07992 47.4395 3.7923L46.4697 6.62074C46.0849 7.74304 45.0238 8.46363 43.8846 8.46363C43.6523 8.46363 43.4169 8.43363 43.1831 8.37105ZM43.2452 2.54402L42.6708 5.4784C42.5731 5.97691 42.8811 6.4705 43.3719 6.60187L43.6381 6.67324C44.1289 6.80472 44.6422 6.53132 44.807 6.05074L45.7767 3.2223C45.8648 2.96519 45.843 2.69144 45.7153 2.45156C45.5874 2.21168 45.3725 2.04082 45.11 1.97051L44.4484 1.7932C44.1859 1.72289 43.9143 1.76332 43.6837 1.90723C43.4531 2.05113 43.2974 2.2773 43.2452 2.54402ZM52.1289 17.317L52.2003 17.5833C52.524 18.791 53.6275 19.605 54.8379 19.605C55.0102 19.605 55.1847 19.5885 55.3593 19.5542L58.2937 18.9798C59.0328 18.8351 59.6854 18.3856 60.0841 17.7467C60.4827 17.1077 60.5996 16.3241 60.4047 15.5967L60.2274 14.9352C60.0325 14.2077 59.5394 13.5875 58.8746 13.2335C58.21 12.8795 57.42 12.8167 56.7077 13.0608L53.8791 14.0305C52.5281 14.4937 51.7593 15.9374 52.1289 17.317ZM54.4492 15.6933L57.2778 14.7235C57.5349 14.6354 57.8085 14.6572 58.0485 14.7849C58.2884 14.9127 58.4593 15.1277 58.5296 15.3902L58.7069 16.0517C58.7773 16.3142 58.7368 16.5859 58.5929 16.8164C58.4489 17.047 58.2228 17.2028 57.9561 17.2549L55.0217 17.8294C54.5232 17.9273 54.0296 17.619 53.8981 17.1283L53.8268 16.8621C53.6954 16.3714 53.9688 15.858 54.4492 15.6933ZM7.98102 48.4754C9.05774 47.5369 10.6924 47.593 11.7023 48.6029L11.8972 48.7978C12.9072 49.8078 12.9632 51.4424 12.0247 52.5192L10.06 54.7731C9.56528 55.3409 8.84973 55.6813 8.09716 55.7071C8.06633 55.7082 8.0354 55.7086 8.00469 55.7086C7.28434 55.7086 6.58555 55.4205 6.07473 54.9097L5.5904 54.4253C5.05778 53.8928 4.76716 53.1556 4.79294 52.4029C4.81872 51.6503 5.15915 50.9348 5.72692 50.44L7.98102 48.4754ZM8.73501 53.6183L10.6997 51.3642C11.0334 50.9812 11.0136 50.3998 10.6543 50.0406L10.4594 49.8458C10.2713 49.6577 10.0224 49.5626 9.77293 49.5626C9.54583 49.5626 9.31837 49.6414 9.1359 49.8004L6.8818 51.7651C6.67696 51.9437 6.55907 52.1915 6.5497 52.4631C6.54044 52.7348 6.6411 52.9903 6.83329 53.1824L7.31762 53.6668C7.50981 53.859 7.76505 53.9582 8.03692 53.9504C8.30856 53.9411 8.55641 53.8231 8.73501 53.6183ZM18.0835 51.7002L17.8173 51.6288C16.4374 51.2593 14.994 52.0281 14.5307 53.3791L13.561 56.2075C13.3168 56.9199 13.3797 57.7099 13.7338 58.3746C14.0878 59.0393 14.708 59.5324 15.4355 59.7274L16.0971 59.9047C16.328 59.9666 16.5645 59.997 16.8004 59.997C17.3075 59.997 17.8111 59.8562 18.2471 59.5842C18.886 59.1855 19.3354 58.5329 19.4802 57.7938L20.0546 54.8594C20.3289 53.4575 19.4632 52.0699 18.0835 51.7002ZM18.3296 54.5215L17.7552 57.4558C17.7029 57.7227 17.5471 57.9487 17.3166 58.0926C17.0861 58.2364 16.8146 58.2771 16.552 58.2066L15.8905 58.0293C15.6279 57.959 15.4129 57.7882 15.2852 57.5483C15.1575 57.3084 15.1357 57.0347 15.2238 56.7775L16.1935 53.9491C16.3304 53.5498 16.7077 53.2937 17.113 53.2937C17.1955 53.2937 17.2793 53.3043 17.3623 53.3266L17.6286 53.398C18.1193 53.5295 18.4272 54.0229 18.3296 54.5215ZM8.79996 42.4166L8.87133 42.6828C9.24105 44.0625 8.47219 45.5061 7.12113 45.9696L4.29258 46.9393C4.00641 47.0374 3.70758 47.0859 3.40957 47.0859C2.96567 47.0859 2.52328 46.9783 2.12567 46.7666C1.46086 46.4124 0.967739 45.7923 0.772857 45.0648L0.595552 44.4031C0.40067 43.6758 0.517505 42.892 0.916177 42.2531C1.31485 41.6142 1.96735 41.1648 2.70645 41.0201L5.64094 40.4456C7.04297 40.1714 8.43023 41.0369 8.79996 42.4166ZM3.72246 45.2764L6.55102 44.3067C7.0316 44.1419 7.305 43.6285 7.17351 43.1376L7.10227 42.8715C6.98707 42.442 6.59461 42.1524 6.16406 42.1524C6.10277 42.1524 6.04078 42.1583 5.97867 42.1705L3.04418 42.7449C2.77746 42.7971 2.55129 42.9528 2.40739 43.1834C2.26348 43.4141 2.22293 43.6856 2.29336 43.9481L2.47067 44.6097C2.54098 44.8722 2.71184 45.0873 2.95172 45.215C3.19172 45.3427 3.46547 45.3645 3.72246 45.2764Z" fill="white"/>
</svg>
