<svg width="61" height="60" viewBox="0 0 61 60" fill="none" xmlns="http://www.w3.org/2000/svg">
<path fill-rule="evenodd" clip-rule="evenodd" d="M18.8231 57.3184C17.925 57.5423 17.0063 57.6562 16.0857 57.6562C11.9846 57.6562 7.95123 55.3542 5.02017 51.3405C2.10513 47.3492 0.499756 42.101 0.499756 36.5625C0.499756 31.024 2.10513 25.7758 5.02017 21.7845C7.95123 17.7708 11.9846 15.4688 16.0857 15.4688C16.5274 15.4688 16.9719 15.4958 17.4118 15.5479C19.2964 13.9618 21.3779 13.125 23.4685 13.125C23.6594 13.125 23.8503 13.1342 24.0412 13.1483C25.1416 10.4146 25.8123 6.86371 25.8123 3.65021V1.17188C25.8123 0.524597 26.3369 0 26.9841 0H34.0154C34.6627 0 35.1873 0.524597 35.1873 1.17188V3.65021C35.1873 6.86371 35.8579 10.4146 36.9583 13.1483C37.1492 13.1342 37.3401 13.125 37.531 13.125C39.6225 13.125 41.7054 13.9613 43.5904 15.5461C52.6683 14.5015 60.4998 24.3077 60.4998 36.5625C60.4998 42.101 58.8944 47.3492 55.9793 51.3405C53.0483 55.3542 49.0149 57.6562 44.9138 57.6562C43.9937 57.6562 43.075 57.5423 42.1759 57.3184C40.506 57.8101 38.8201 57.7647 37.195 57.1861C35.439 58.9833 33.0445 60 30.4998 60C27.9555 60 25.5614 58.9838 23.8045 57.1857C22.1776 57.7652 20.493 57.8091 18.8231 57.3184ZM28.156 2.34375V3.65021C28.156 7.06238 27.4932 10.708 26.3556 13.6743C26.6893 13.8029 27.0198 13.9522 27.3453 14.1252C28.3524 13.461 29.4103 13.125 30.4998 13.125C31.5892 13.125 32.6471 13.461 33.6542 14.1252C33.9797 13.9522 34.3102 13.8029 34.6439 13.6743C33.5063 10.708 32.8435 7.06284 32.8435 3.65021V2.34375H28.156ZM12.1315 23.6545C12.9166 21.4439 13.9676 19.4788 15.2205 17.8555C8.42731 18.5115 2.84351 26.8098 2.84351 36.5625C2.84351 46.246 8.34857 54.4977 15.0768 55.2553C12.9509 53.4819 11.156 50.8141 9.92969 47.5177C9.70401 46.9112 10.0125 46.2364 10.6195 46.0107C11.2256 45.7851 11.9004 46.0941 12.126 46.7006C13.6939 50.9143 16.3484 54.0125 19.2278 54.9889C20.2578 55.3391 21.2928 55.4022 22.3062 55.1811C21.7523 54.1873 21.382 53.0969 21.22 51.9626C21.128 51.3222 21.5729 50.7285 22.2138 50.6369C22.8533 50.5453 23.4484 50.9903 23.5399 51.6307C24.0187 54.9783 26.899 57.6562 30.4998 57.6562C34.1106 57.6562 36.9821 54.9687 37.4596 51.6312C37.5516 50.9903 38.1449 50.5449 38.7857 50.6369C39.4261 50.7285 39.8716 51.3222 39.7795 51.963C39.6175 53.0969 39.2472 54.1873 38.6933 55.1811C39.7072 55.4022 40.7422 55.3391 41.7694 54.9893C44.7348 53.9832 47.4388 50.7504 49.003 46.3422C49.2195 45.7324 49.8902 45.4134 50.4995 45.6299C51.1096 45.8464 51.4287 46.5166 51.2117 47.1263C49.9918 50.5646 48.1086 53.4013 45.8907 55.2589C52.6335 54.5238 58.156 46.2616 58.156 36.5625C58.156 26.9962 52.7462 18.5152 45.7849 17.8532C46.9651 19.3817 47.9648 21.2146 48.7261 23.2635C48.9518 23.8701 48.6428 24.5448 48.0362 24.7701C47.4306 24.9953 46.7554 24.6877 46.5293 24.0802C45.5529 21.4536 44.159 19.2494 42.4977 17.7049C40.5939 15.9343 38.4795 15.1813 36.4749 15.5708L36.4691 15.5724C36.4658 15.5734 36.4624 15.5744 36.4589 15.575C36.1522 15.6358 35.8464 15.7251 35.5429 15.8386C36.6306 17.1208 37.6125 18.837 38.4264 20.8974C38.6644 21.4993 38.3692 22.18 37.7672 22.4181C37.168 22.6547 36.4855 22.3636 36.2465 21.7589C35.25 19.2352 33.1923 15.4688 30.4998 15.4688C27.8026 15.4688 25.7454 19.2467 24.753 21.7589C24.515 22.3608 23.8347 22.6556 23.2323 22.4181C22.6303 22.1805 22.3351 21.4998 22.5731 20.8974C23.387 18.837 24.3689 17.1208 25.4566 15.8386C25.1531 15.7251 24.8473 15.6363 24.5406 15.5754L24.5391 15.5751L24.5352 15.574L24.5333 15.5736L24.5287 15.5722L24.5258 15.5714L24.5246 15.5713C22.5209 15.1817 20.4074 15.9348 18.5041 17.7081C16.7705 19.3231 15.3304 21.6508 14.3398 24.4391C14.1223 25.0516 13.4508 25.367 12.8434 25.1514C12.2336 24.9344 11.9146 24.2647 12.1315 23.6545ZM11.3982 29.5312C12.045 29.5312 12.5701 29.0062 12.5701 28.3594C12.5701 27.7126 12.045 27.1875 11.3982 27.1875C10.7514 27.1875 10.2263 27.7126 10.2263 28.3594C10.2263 29.0062 10.7514 29.5312 11.3982 29.5312ZM51.9451 43.5938C52.5919 43.5938 53.1169 43.0687 53.1169 42.4219C53.1169 41.7751 52.5919 41.25 51.9451 41.25C51.2982 41.25 50.7732 41.7751 50.7732 42.4219C50.7732 43.0687 51.2982 43.5938 51.9451 43.5938ZM17.1509 34.3671L25.961 31.1609C26.3671 31.013 26.6591 30.6537 26.7205 30.2261C26.7818 29.7981 26.6024 29.3715 26.2545 29.1151L19.4448 24.1118C19.1289 23.8797 18.7178 23.8206 18.3498 23.9548C17.9818 24.0889 17.7048 24.3979 17.6119 24.7783L15.6115 32.9887C15.5094 33.4085 15.6467 33.8507 15.9685 34.1391C16.2903 34.427 16.7444 34.5149 17.1509 34.3671ZM19.4731 27.041L23.1018 29.7075L18.407 31.4159L19.4731 27.041ZM43.8486 34.3671L35.0385 31.1609C34.6324 31.013 34.3404 30.6537 34.2795 30.2261C34.2182 29.7981 34.3972 29.3715 34.7455 29.1151L41.5552 24.1118C41.8706 23.8797 42.2817 23.8206 42.6497 23.9548C43.0178 24.0889 43.2947 24.3979 43.3876 24.7783L45.3881 32.9887C45.4901 33.4085 45.3533 33.8507 45.0315 34.1391C44.7092 34.4275 44.2546 34.5149 43.8486 34.3671ZM42.5925 31.4159L41.5264 27.041L37.8977 29.7075L42.5925 31.4159ZM28.9846 36.2192L30.4998 34.704L32.015 36.2192C32.4727 36.6769 33.2143 36.6769 33.6721 36.2192C34.1298 35.7614 34.1298 35.0198 33.6721 34.5621L31.3283 32.2183C30.8705 31.7606 30.129 31.7606 29.6712 32.2183L27.3275 34.5621C26.8697 35.0194 26.8697 35.7614 27.3275 36.2192C27.7852 36.6769 28.5268 36.6769 28.9846 36.2192ZM30.4998 50.625C24.3685 50.625 18.841 46.9002 16.5549 41.1836L15.3492 38.1697C15.1798 37.7458 15.2718 37.2624 15.5849 36.9301C15.8976 36.5982 16.3755 36.4783 16.808 36.6225C19.0319 37.3645 21.3353 37.9285 23.6539 38.2997C24.2224 38.3908 24.6404 38.8811 24.6404 39.4569V41.25H26.9841V39.8987C26.9841 39.5773 27.1164 39.2697 27.3499 39.0486C27.5829 38.8271 27.896 38.7117 28.2183 38.7286C29.7321 38.8092 31.2674 38.8092 32.7812 38.7286C33.1026 38.7122 33.4166 38.8271 33.6496 39.0486C33.8831 39.2697 34.0154 39.5773 34.0154 39.8987V41.25H36.3591V39.4574C36.3591 38.8815 36.7775 38.3908 37.3461 38.3002C39.661 37.9298 41.964 37.3659 44.1915 36.6229C44.6241 36.4783 45.1015 36.5987 45.4146 36.9305C45.7277 37.2624 45.8197 37.7463 45.6504 38.1697L44.4442 41.1836C42.1627 46.8887 36.6439 50.625 30.4998 50.625ZM22.2966 42.4219V40.4453C20.9975 40.2077 19.7057 39.9129 18.4313 39.5636L18.7311 40.3134C20.6601 45.1369 25.3247 48.2812 30.4998 48.2812C35.7132 48.2812 40.3325 45.1538 42.2684 40.3134L42.5682 39.5636C41.2929 39.9133 40.0011 40.2081 38.7029 40.4453V42.4219C38.7029 43.0692 38.1783 43.5938 37.531 43.5938H32.8435C32.1962 43.5938 31.6716 43.0692 31.6716 42.4219V41.1177C30.8911 41.1378 30.1084 41.1378 29.3279 41.1177V42.4219C29.3279 43.0692 28.8033 43.5938 28.156 43.5938H23.4685C22.8212 43.5938 22.2966 43.0692 22.2966 42.4219Z" fill="white"/>
</svg>
