<svg width="73" height="60" viewBox="0 0 73 60" fill="none" xmlns="http://www.w3.org/2000/svg">
<path fill-rule="evenodd" clip-rule="evenodd" d="M72.4967 8.13506C72.5713 10.9733 71.322 13.6356 69.1548 15.2572C68.8601 15.4776 68.7569 15.899 68.9035 16.2818C69.27 17.2366 69.4666 18.2477 69.488 19.2868C69.5351 21.5651 68.688 23.8009 67.164 25.421C65.8405 26.828 64.0909 27.6776 62.2667 27.8267C62.4543 29.1791 62.5532 30.5621 62.5532 31.9697C62.5532 35.7257 61.8738 39.3722 60.534 42.8076C60.3083 43.3863 59.6897 43.6586 59.1513 43.4158C58.6135 43.173 58.3603 42.507 58.586 41.9283C59.8166 38.7729 60.4407 35.4222 60.4407 31.9697C60.4407 30.5071 60.3257 29.073 60.107 27.6763C56.5465 26.8885 53.917 23.5265 53.917 19.4759L53.9171 19.4403C53.9178 19.2146 53.8367 18.9993 53.6888 18.8401C53.5408 18.6808 53.3469 18.5941 53.1256 18.5944H53.0979C50.9605 18.5944 48.9671 17.6815 47.4852 16.0237C46.0039 14.3665 45.234 12.1858 45.3175 9.88326C45.3393 9.28096 45.4235 8.69485 45.5597 8.13037C42.7633 6.89536 39.7045 6.21212 36.4995 6.21212C33.2965 6.21212 30.2398 6.89506 27.4449 8.1284C27.6497 8.99138 27.7281 9.89581 27.6681 10.8179C27.4068 14.8334 24.4033 18.1589 20.6818 18.553C20.3578 18.5873 20.0303 18.6005 19.7079 18.5919C19.5376 18.5857 19.3766 18.6554 19.2577 18.7833C19.1388 18.9112 19.0755 19.0836 19.0797 19.2681L19.0812 19.3557C19.1112 21.6391 18.2876 23.7909 16.7622 25.4157C15.674 26.5747 14.3397 27.3451 12.894 27.6728C12.6747 29.0706 12.5584 30.5056 12.5584 31.9695C12.5584 46.1724 23.2984 57.7271 36.4996 57.7271C40.3727 57.7271 44.0682 56.7635 47.4834 54.8628C50.743 53.049 53.6182 50.4047 55.7984 47.216C56.1441 46.7102 56.8052 46.602 57.2751 46.9739C57.7451 47.3458 57.8458 48.057 57.5001 48.5627C55.1285 52.0312 52.0004 54.9079 48.454 56.8815C44.7882 58.9217 40.6545 60 36.4998 60C22.1338 60 10.4462 47.4257 10.4462 31.9698C10.4462 30.5634 10.545 29.1817 10.7321 27.8305C9.25058 27.7165 7.84602 27.1572 6.64944 26.1988C6.18158 25.8238 6.08469 25.112 6.43302 24.6087C6.78149 24.1053 7.44313 24.0011 7.91099 24.3758C8.855 25.132 9.97691 25.5479 11.1555 25.5786C12.7022 25.6175 14.1622 24.9873 15.2762 23.8007C16.3897 22.6148 16.991 21.0478 16.9692 19.3886L16.9681 19.3259C16.9495 18.5112 17.2323 17.7484 17.7643 17.1762C18.2961 16.6042 19.0038 16.2999 19.76 16.32C19.9964 16.3261 20.237 16.3167 20.4753 16.2914C23.1844 16.0044 25.3708 13.5831 25.5611 10.6594C25.6729 8.94191 25.137 7.30688 24.0523 6.05538C22.9667 4.80267 21.4925 4.11277 19.9015 4.11277C18.6947 4.11277 17.5427 4.51536 16.5701 5.27682C15.3794 6.20879 13.6925 5.94736 12.8098 4.69389C11.7028 3.1221 9.94696 2.21767 8.11672 2.27531C5.11649 2.36926 2.69971 4.97136 2.61477 8.19936C2.55951 10.2987 3.49185 12.2555 5.1089 13.4338C6.20225 14.2307 6.61569 15.7465 6.092 17.0384C5.84563 17.6458 5.69446 18.2899 5.64229 18.9529C5.59321 19.5781 5.08302 20.0426 4.50083 19.9894C3.91949 19.9366 3.48819 19.3866 3.53741 18.7613C3.60899 17.8507 3.81711 16.9653 4.15574 16.1299C4.27471 15.8365 4.1795 15.5015 3.92427 15.3156C1.70619 13.6995 0.42721 11.0151 0.503007 8.13506C0.619585 3.70428 3.93693 0.132539 8.05513 0.00363719C10.566 -0.0747329 12.9748 1.16527 14.4932 3.3212C14.6894 3.59988 15.0556 3.65148 15.327 3.43921C16.6632 2.39317 18.245 1.84019 19.9014 1.84019C22.0531 1.84019 24.1291 2.81164 25.5972 4.50553C26.0045 4.97544 26.3532 5.48576 26.645 6.02573C29.6869 4.68315 33.0137 3.93954 36.4998 3.93954C39.9898 3.93954 43.3206 4.68375 46.3656 6.02905C47.6679 3.62545 50.0491 1.96622 52.7756 1.84715C54.4855 1.77135 56.1307 2.2853 57.5302 3.33028C57.8846 3.59504 58.3555 3.52061 58.6251 3.15675C60.1679 1.07555 62.4721 -0.0733712 64.9444 0.00363719C69.0627 0.132388 72.3801 3.70428 72.4967 8.13506ZM66.9512 17.149C66.4226 15.7713 66.8328 14.226 67.9487 13.3911C69.5286 12.2091 70.4394 10.2683 70.3853 8.19951C70.3004 4.97136 67.8835 2.36926 64.8832 2.27546C63.0789 2.21797 61.4015 3.05689 60.2769 4.57391C59.3207 5.86369 57.5852 6.13783 56.3259 5.19754C55.3072 4.43699 54.1101 4.06405 52.8612 4.11806C49.9293 4.24621 47.543 6.81744 47.4287 9.97207C47.368 11.6513 47.9289 13.2411 49.0082 14.4484C50.0882 15.6565 51.5407 16.3219 53.0983 16.3219H53.1222H53.1327C53.9073 16.3219 54.6362 16.6452 55.1826 17.2331C55.7316 17.8237 56.0324 18.6124 56.0298 19.4541V19.4759C56.0298 22.7838 58.4349 25.4635 61.5054 25.5766C63.0673 25.6349 64.5504 25.0047 65.6796 23.8044C66.8085 22.6045 67.4111 21.018 67.3764 19.3373C67.3607 18.5798 67.2177 17.8436 66.9512 17.149ZM26.5773 23.6214H28.4568C29.0401 23.6214 29.513 24.1302 29.513 24.7578C29.513 25.3854 29.0401 25.8942 28.4568 25.8942H26.5773V27.9162C26.5773 28.5438 26.1044 29.0526 25.5211 29.0526C24.9378 29.0526 24.4649 28.5438 24.4649 27.9162V25.8942H22.5853C22.002 25.8942 21.529 25.3854 21.529 24.7578C21.529 24.1302 22.002 23.6214 22.5853 23.6214H24.4649V21.5993C24.4649 20.9717 24.9378 20.4629 25.5211 20.4629C26.1044 20.4629 26.5773 20.9717 26.5773 21.5993V23.6214ZM36.4997 25.3467C31.7845 25.3467 27.9484 29.4738 27.9484 34.5467C27.9484 39.6196 31.7845 43.7467 36.4997 43.7467C41.2148 43.7467 45.0509 39.6196 45.0509 34.5467C45.0509 29.4737 41.215 25.3467 36.4997 25.3467ZM36.4997 41.474C32.9493 41.474 30.0609 38.3664 30.0609 34.5465C30.0609 30.7268 32.9493 27.6193 36.4997 27.6193C40.05 27.6193 42.9385 30.7268 42.9385 34.5465C42.9385 38.3664 40.05 41.474 36.4997 41.474ZM51.1358 34.9093C50.5604 34.8066 50.0162 35.2242 49.9203 35.8433C49.397 39.2186 47.7691 42.3098 45.3367 44.5472C42.878 46.8087 39.7397 48.0542 36.5 48.0542C33.2603 48.0542 30.1219 46.8087 27.6633 44.547C25.2309 42.3097 23.603 39.2186 23.0797 35.8431C22.9837 35.224 22.4388 34.8066 21.8642 34.9092C21.2885 35.0125 20.8999 35.598 20.9958 36.2171C21.6008 40.1188 23.4811 43.6906 26.2903 46.2746C29.1314 48.8878 32.7573 50.327 36.4999 50.327C40.2424 50.327 43.8683 48.8879 46.7094 46.2746C49.5186 43.6907 51.3989 40.119 52.0039 36.2173C52.0998 35.5982 51.7113 35.0127 51.1358 34.9093ZM50.4141 23.6214H48.5345V21.5993C48.5345 20.9717 48.0616 20.4629 47.4783 20.4629C46.895 20.4629 46.422 20.9717 46.422 21.5993V23.6214H44.5426C43.9593 23.6214 43.4864 24.1302 43.4864 24.7578C43.4864 25.3854 43.9593 25.8942 44.5426 25.8942H46.422V27.9162C46.422 28.5438 46.895 29.0526 47.4783 29.0526C48.0616 29.0526 48.5345 28.5438 48.5345 27.9162V25.8942H50.4141C50.9974 25.8942 51.4703 25.3854 51.4703 24.7578C51.4703 24.1302 50.9974 23.6214 50.4141 23.6214Z" fill="white"/>
</svg>
