<svg width="61" height="60" viewBox="0 0 61 60" fill="none" xmlns="http://www.w3.org/2000/svg">
<path fill-rule="evenodd" clip-rule="evenodd" d="M57.5556 22.0023C57.889 26.8577 58.3561 31.8144 59.0898 36.6361C59.2189 37.4839 59.3809 38.3827 59.5487 39.3138C60.3354 43.6781 61.2496 48.75 59.4902 52.585C56.0151 60.3881 42.5308 59.9076 34.6444 59.6266C33.9772 59.6028 33.35 59.5805 32.7723 59.5647C30.7623 59.513 28.4879 59.6345 26.0987 59.7622C17.5853 60.2171 7.61465 60.7499 2.95237 53.7989C0.793205 50.5497 0.853988 44.6733 0.904325 39.8066C0.922419 38.0573 0.939164 36.4384 0.850968 35.1189C0.383988 27.667 0.0503227 20.3502 2.11837 13.168C1.65139 11.9879 1.55133 10.7066 2.15173 9.42527C3.11904 7.33472 4.88689 7.19985 6.48797 7.97538C6.45461 6.76151 6.85488 5.54764 7.92226 4.7384C9.35655 3.6594 11.1245 3.92926 12.2919 5.04186C12.1584 0.0515222 18.1291 -1.93787 20.6641 2.34438C22.0984 0.287552 24.5334 0.118959 25.8009 2.47926C27.8689 0.658456 29.6367 2.0072 30.6041 4.23262C30.7042 4.09775 30.8042 3.96287 30.9377 3.86172C31.9882 3.09613 34.4524 3.43393 36.3642 3.69601C37.0626 3.79175 37.6873 3.87739 38.1425 3.89543C38.4001 3.90465 38.6579 3.91371 38.9158 3.92278C42.431 4.04634 45.9673 4.17064 49.4168 4.70468C52.3188 5.14302 59.9571 6.59292 58.156 10.9089C58.1727 10.9427 58.1894 10.968 58.2061 10.9933L58.2061 10.9934C58.2227 11.0186 58.2394 11.0438 58.2561 11.0775C58.765 13.2306 58.4005 15.2006 58.0293 17.2067L58.0293 17.2067C57.7436 18.7506 57.454 20.3159 57.5556 22.0023ZM7.45528 11.0102C6.48797 9.89744 4.18642 8.24523 3.68609 10.7404C3.61949 11.145 3.61949 11.5159 3.65284 11.8531C3.88633 12.0217 4.08647 12.3252 3.9864 12.7298C3.96972 12.7804 3.96138 12.8394 3.95304 12.8984C3.94471 12.9574 3.93637 13.0164 3.91969 13.067C4.38667 14.2471 5.35398 15.1912 6.35465 16.0342C6.48807 16.1691 6.48807 16.304 6.45472 16.4726C6.6215 16.54 6.72156 16.7086 6.6215 16.9109C2.45204 26.2846 38.4762 14.5842 30.404 10.1335C29.9704 10.0998 29.5034 9.69513 29.6368 9.12192C29.9036 7.90805 29.2032 0.422536 26.2679 4.43504C25.8343 4.97454 24.9336 5.00826 24.7335 4.23273C22.7322 2.47937 21.6648 2.58052 21.4313 4.56991C21.2312 5.34544 20.0637 5.37916 19.8636 4.56991C18.3626 -1.19595 13.526 1.97359 13.4259 6.45815C13.4259 6.69418 13.2592 6.86277 13.059 6.89649C12.8589 7.06508 12.492 7.13252 12.1918 6.89649C11.2245 6.15469 9.52333 4.87338 8.62273 6.55931C7.98897 7.70574 8.22246 8.78473 8.85622 9.89744C9.35655 10.7741 8.15575 11.7857 7.45528 11.0102ZM35.0239 56.8673H35.0239C39.9006 56.8682 44.9821 56.8691 49.717 55.7545C56.0212 54.271 58.0559 50.2248 57.2553 43.6497C57.0151 41.6307 56.7606 39.6166 56.5062 37.6036L56.5062 37.6033L56.5061 37.603L56.5061 37.6027L56.5061 37.6024L56.506 37.6022L56.506 37.602L56.506 37.6018C56.0892 34.3037 55.6728 31.0088 55.3208 27.7008C55.0955 25.6058 55.3435 23.0528 55.593 20.485C55.8977 17.3496 56.2045 14.1921 55.6543 11.8194C55.5209 11.2462 55.721 10.8078 56.0546 10.5044H55.8878C55.7544 10.5044 55.7544 10.2683 55.8878 10.2683H56.4215C56.4882 10.2346 56.5548 10.2346 56.5883 10.2346C55.2732 6.95551 47.2756 6.78224 43.4301 6.69893C42.8864 6.68715 42.4257 6.67717 42.0786 6.66046C41.5629 6.63524 40.763 6.67082 39.8186 6.71283C36.9759 6.83928 32.8237 7.02398 31.1713 5.78378C31.3714 6.7279 31.4715 7.73946 31.3714 8.64986C45.2806 15.5959 -1.35062 29.6902 5.92092 16.8435H5.85421C4.98696 16.5063 4.18642 15.9331 3.51931 15.225C2.68542 20.9234 2.98562 26.7904 3.35253 32.4889C3.46423 34.1615 3.47088 36.0371 3.47778 37.9845C3.49357 42.4362 3.51068 47.2632 4.78694 50.8992C7.3713 58.2641 20.7423 57.5426 29.6586 57.0615H29.6587H29.6587H29.6588H29.6588C31.56 56.9589 33.2586 56.8672 34.6069 56.8672L35.0239 56.8673ZM9.58642 10.4453C10.1248 9.89769 10.7196 9.29259 11.4247 9.15553C11.9249 9.05437 12.2251 9.52654 12.0251 9.99849C11.8289 10.4448 11.4163 10.7634 11.0127 11.0751L11.0127 11.0751C10.8674 11.1873 10.7233 11.2986 10.5908 11.4147C10.5002 11.4851 10.4096 11.5571 10.3187 11.6292L10.3187 11.6292C9.97451 11.9025 9.62599 12.1791 9.2566 12.3925C8.85633 12.6285 8.22257 12.7297 7.85566 12.3925C7.62217 12.1565 7.85566 11.853 8.12251 11.8867L8.12252 11.8867L8.12254 11.8867L8.12256 11.8867C8.13551 11.8736 8.14343 11.8656 8.15023 11.8567C8.16092 11.8428 8.16884 11.8268 8.18921 11.7856L8.18922 11.7856C8.25593 11.6844 8.32264 11.617 8.38935 11.5495C8.47306 11.4755 8.56006 11.4015 8.64827 11.3264C8.84126 11.1621 9.04011 10.9929 9.22324 10.8077C9.34175 10.6942 9.46259 10.5713 9.58642 10.4453ZM26.6681 12.2577C26.3346 11.7182 25.8676 11.3473 25.3339 11.145C25.4673 11.0102 25.534 10.8078 25.5007 10.5718C25.2339 8.88588 24.0664 7.36855 22.2318 7.46971C20.8976 7.53714 19.9637 8.5487 19.3966 9.69513C19.3364 9.63863 19.2762 9.58269 19.2163 9.52695C18.8109 9.15024 18.4154 8.78263 18.0957 8.31267C17.929 8.04292 17.4953 7.87433 17.1951 8.07664C15.1938 9.52654 15.1604 11.8531 16.4947 13.7751C16.7282 14.1123 17.3953 13.9099 17.1951 13.4716C16.6614 12.1229 16.3946 10.6055 17.4286 9.56026C17.5767 9.7187 17.7315 9.87025 17.8861 10.0215C18.3235 10.4496 18.7586 10.8754 19.0297 11.4485C19.2632 11.988 20.1304 11.8194 20.2639 11.2799C20.5307 10.2009 21.031 9.18935 22.1651 8.85217C23.4326 8.48126 23.9663 9.9986 24.2332 10.909C24.2332 10.9259 24.2415 10.9343 24.2499 10.9427C24.2582 10.9511 24.2665 10.9596 24.2665 10.9764C23.5994 11.0102 22.9323 11.2799 22.432 11.7857C21.965 12.2577 22.6655 12.9321 23.1658 12.5275C24.0596 11.7934 24.7896 12.2178 25.5714 12.6722C25.7232 12.7604 25.8771 12.8498 26.0344 12.9321C26.4347 13.1343 26.9351 12.6961 26.6681 12.2577ZM48.6495 27.431C49.1832 27.2287 49.817 27.3635 49.9504 28.1053C52.1186 40.5812 32.9724 40.9858 30.1371 30.1961C30.0704 30.1961 30.0121 30.2045 29.9537 30.213L29.9537 30.213L29.9536 30.213C29.8953 30.2214 29.8369 30.2298 29.7702 30.2298C29.9036 30.3647 30.0371 30.6007 30.0704 30.8705C31.0044 38.7606 24.1998 42.5371 17.1951 41.5255C13.3592 40.9522 4.18642 37.3107 8.15574 31.8819C8.20022 31.8145 8.24469 31.777 8.28917 31.7396C8.3114 31.7208 8.33364 31.7021 8.35588 31.6796C8.38923 31.5785 8.45594 31.511 8.52266 31.4436C8.35588 31.2413 8.42259 30.9041 8.68943 30.8366C20.9977 28.5438 35.741 26.1497 48.2492 27.2624C48.4159 27.2961 48.5494 27.3298 48.6495 27.431ZM18.296 37.7825C20.4641 37.7151 22.9324 37.2093 24.5668 35.6583C25.8045 34.4854 26.225 33.1715 26.6756 31.763L26.6756 31.763L26.6757 31.7629C26.808 31.3494 26.9429 30.9277 27.1019 30.4991C26.4681 30.6003 25.8344 30.6678 25.2006 30.7353C24.7002 30.8027 24.2081 30.8702 23.716 30.9376C23.2241 31.005 22.7322 31.0725 22.2319 31.1399C22.2653 31.241 22.2987 31.3422 22.2987 31.4434C22.4321 33.1293 21.1312 35.793 19.0632 35.085C17.6289 34.6129 17.1285 33.0956 17.4621 31.7468C14.827 31.983 12.1585 32.0841 9.59015 31.6794C9.65686 31.8144 9.69021 31.983 9.65686 32.1853C8.95639 36.5012 15.1605 37.9174 18.296 37.7825ZM40.9445 34.1411C42.679 33.7702 44.5468 33.1632 45.8478 31.9156C46.561 31.2426 46.9014 30.501 47.2677 29.7032L47.2678 29.7032C47.4153 29.3817 47.5671 29.0512 47.7491 28.7123C46.1709 28.7761 44.6226 28.8701 43.0476 28.9657L43.0474 28.9657L42.7791 28.982V29.0157C42.7791 30.1959 42.4122 32.2527 40.8112 32.0504C39.5103 31.8817 38.7431 30.4656 38.3427 29.3192C36.3087 29.4877 34.2749 29.69 32.2409 29.8922H32.2409H32.2408L32.2388 29.8924C33.3727 33.669 37.3087 34.9165 40.9445 34.1411ZM52.5189 18.0572C51.685 17.248 50.7177 16.4724 49.717 15.7306C49.9839 15.326 50.2841 14.9551 50.6176 14.5505C50.9178 14.1796 50.5509 13.6401 50.1173 13.8761C49.5836 14.1796 49.15 14.6179 48.8164 15.1237C47.9157 14.5505 46.9484 14.0447 45.9811 13.6064C46.0146 13.5555 46.0482 13.5056 46.0814 13.4562L46.0818 13.4556C46.2467 13.2102 46.4038 12.9764 46.5148 12.696C46.6816 12.2913 46.2146 11.853 45.881 12.1902C45.7309 12.3419 45.5808 12.5105 45.4307 12.6791L45.4307 12.6791C45.2806 12.8477 45.1305 13.0163 44.9804 13.168C44.0798 12.8308 43.1459 12.5948 42.2119 12.4262C42.3787 12.0553 42.5456 11.6844 42.7456 11.3135C43.0458 10.7403 42.2786 10.302 41.9117 10.8077C41.5781 11.2461 41.3448 11.7519 41.178 12.2239C40.0105 12.089 38.8431 12.089 37.6756 12.3251C37.1086 12.4262 37.2419 13.4041 37.8091 13.3366C38.8764 13.2017 39.8771 13.2692 40.8111 13.4041C40.7874 13.5356 40.7595 13.663 40.7319 13.7891C40.6817 14.0184 40.6325 14.2437 40.6109 14.4831C40.5442 14.9551 41.1446 15.1237 41.3114 14.6854C41.4449 14.3145 41.5782 13.9773 41.7451 13.6064C42.5123 13.8087 43.2461 14.0447 43.9465 14.3482C43.813 14.5169 43.6712 14.6772 43.5294 14.8374L43.5293 14.8375L43.5293 14.8375C43.3876 14.9976 43.246 15.1576 43.1127 15.326C42.7124 15.7644 43.3128 16.3713 43.7464 15.9667C43.9258 15.7853 44.1212 15.6039 44.3208 15.4186L44.321 15.4185L44.321 15.4184C44.5296 15.2248 44.7428 15.0269 44.9473 14.8202C46.0147 15.3935 47.0486 16.0341 48.116 16.7085C47.8982 17.3375 47.7675 17.9666 47.6426 18.5683L47.6156 18.6979C47.549 19.1699 48.216 19.3722 48.3494 18.9002C48.5161 18.2932 48.7164 17.7537 48.9498 17.248C49.8838 17.8549 50.8511 18.4618 51.8851 19.0013C52.3854 19.3723 53.0525 18.563 52.5189 18.0572ZM14.6268 48.0668C22.8322 45.0321 32.9724 43.3798 41.7116 43.5147C43.5461 43.5485 55.7876 45.4368 50.8509 50.2247C48.2121 52.8024 43.3854 52.6091 39.745 52.4633C39.2902 52.4451 38.8538 52.4276 38.4426 52.4164C33.7395 52.3152 29.7702 52.4164 25.2005 53.3942C21.8649 54.1022 9.9236 55.7881 14.7602 49.0445C14.7602 49.0277 14.7518 49.0192 14.7435 49.0108C14.7351 49.0023 14.7268 48.9939 14.7268 48.9771V48.9097C14.2932 48.8423 14.1264 48.2353 14.6268 48.0668ZM43.446 44.9647L43.5461 44.8636C42.2119 44.6949 40.9111 44.6275 39.5434 44.6612C39.7768 44.6612 40.0437 44.796 40.1771 45.1333C40.444 45.7738 41.2445 47.5609 42.2452 46.7855C42.7491 46.4102 42.9999 45.8858 43.2492 45.3646C43.3135 45.2302 43.3777 45.096 43.446 44.9647ZM39.3767 44.6612C38.2092 44.695 37.0751 44.7624 35.9077 44.8636C35.9077 44.8972 35.9077 44.9646 35.9411 44.9984C36.0077 45.0323 36.0744 45.0996 36.1078 45.2007C36.3079 45.9088 36.8084 47.1901 37.6756 47.325C38.5637 47.4579 38.7383 45.9514 38.8068 45.3599L38.8096 45.3356C38.843 44.931 39.1098 44.7287 39.3767 44.6612ZM34.0399 47.0214C34.44 46.3471 34.5735 45.7064 34.6736 44.9646C33.5395 45.0995 32.4388 45.2681 31.2713 45.5042C31.4381 45.5378 31.6049 45.639 31.705 45.875C32.0719 46.7517 33.1393 48.505 34.0399 47.0214ZM30.504 46.0436C30.504 45.8077 30.6041 45.6727 30.7375 45.5715C29.6036 45.7738 28.4361 46.01 27.3019 46.2796C27.5687 47.1226 28.2025 48.4714 29.1698 48.4376C30.2372 48.4039 30.4373 46.8528 30.504 46.0436ZM25.1673 48.9772C25.4007 48.2017 25.5675 47.4262 25.6342 46.6169C25.4969 46.6471 25.3585 46.6773 25.2192 46.7076C24.5804 46.8469 23.9231 46.9902 23.266 47.1564C23.733 47.9994 24.4001 48.5052 25.1673 48.9772ZM20.8159 47.6979C20.4717 47.7786 20.1311 47.8584 19.7969 47.9318C19.794 47.955 19.7912 47.9784 19.7883 48.002C19.7576 48.2532 19.7244 48.5253 19.6635 48.741C19.9637 49.5165 20.4306 50.2584 21.1311 50.427C22.3397 50.7242 22.2048 48.176 22.1674 47.4685C22.1666 47.4535 22.1658 47.4393 22.1651 47.4261V47.3923C21.7134 47.4875 21.2616 47.5934 20.8159 47.6979ZM17.4287 49.8538C18.0958 49.584 18.3961 48.8759 18.5962 48.2016C17.9623 48.3389 17.3439 48.4607 16.7513 48.5774C16.4707 48.6327 16.1958 48.6868 15.9277 48.741C16.0945 48.9096 16.1946 49.1457 16.0945 49.4153C16.4614 49.7863 16.895 50.0561 17.4287 49.8538ZM40.5561 51.1021C42.3034 51.1052 44.0725 51.1082 45.8144 50.8653C46.9484 50.6967 48.1493 49.8875 48.9163 48.9099C48.1825 49.4831 47.2152 49.8204 46.4147 49.5843C45.1472 49.2134 44.4801 48.2018 44.1464 47.0216C43.6128 47.8646 42.8123 48.5727 41.845 48.4715C40.9109 48.3704 40.2771 47.8982 39.7768 47.2576C39.3767 48.0668 38.7763 48.6737 37.7756 48.6063C36.7082 48.5389 36.0744 47.6285 35.6742 46.6506C35.374 47.6959 34.7736 48.6737 33.7395 48.8086C32.6722 48.9773 31.9383 48.4715 31.4046 47.7635C31.0377 48.7076 30.3706 49.5167 29.2032 49.4494C27.8356 49.3482 27.1351 47.8646 26.8349 46.617C26.8349 47.7972 26.5347 48.9099 26.1678 50.0563C26.0677 50.4272 25.6341 50.6295 25.3006 50.4272C25.219 50.3747 25.1382 50.3231 25.0583 50.272C24.4196 49.8634 23.8366 49.4904 23.3326 49.0109C23.1658 50.3597 22.6655 51.8096 21.1978 51.5398C20.2639 51.3712 19.6635 50.6294 19.2632 49.7527C18.8963 50.3934 18.3626 50.8992 17.5954 51.0678C16.8282 51.2364 16.1945 50.9329 15.6608 50.4608C14.9321 53.5088 22.3235 52.1752 26.9986 51.3317C28.5297 51.0554 29.7695 50.8317 30.3373 50.8317C31.8112 50.8472 33.2852 50.9056 34.7624 50.9641C36.4944 51.0327 38.2309 51.1015 39.9771 51.1015C40.1698 51.1015 40.3628 51.1018 40.5561 51.1021ZM44.9137 45.5041C45.0805 46.3808 45.5476 48.1004 46.6815 48.1341C47.4995 48.1566 47.8632 47.6013 48.2389 47.028C48.43 46.7362 48.6243 46.4397 48.883 46.2123C48.6162 45.9763 48.2494 45.774 47.7489 45.6391C46.7149 45.3356 45.6809 45.1333 44.6135 44.9647C44.6802 45.0321 44.7136 45.1333 44.7136 45.2345C44.8136 45.3018 44.8803 45.3692 44.9137 45.5041Z" fill="white"/>
</svg>
