<svg version="1.1" id="Layer_1" xmlns="http://www.w3.org/2000/svg" xmlns:xlink="http://www.w3.org/1999/xlink" x="0px" y="0px" width="150px" height="150px" viewBox="0 0 150 150" style="enable-background:new 0 0 150 150;" xml:space="preserve">
   <defs>
    <filter x="0" y="0" width="100%" height="100%" id="dropshadow1" filterUnits="userSpaceOnUse">
      <feGaussianBlur in="SourceAlpha" stdDeviation="2"/>
      <feOffset dx="-7" dy="0" result="offsetblur"/>
      <feMerge>
        <feMergeNode/>
        <feMergeNode in="SourceGraphic"/>
        <feMergeNode in="SourceGraphic"/>
      </feMerge>
    </filter>
        <filter x="0" y="0" width="100%" height="100%" id="dropshadow2" filterUnits="userSpaceOnUse">
      <feGaussianBlur in="SourceAlpha" stdDeviation="2"/>
      <feOffset dx="7" dy="0" result="offsetblur"/>
      <feMerge>
        <feMergeNode/>
        <feMergeNode in="SourceGraphic"/>
        <feMergeNode in="SourceGraphic"/>
      </feMerge>
    </filter>
  </defs>
<path style="fill:#55C1AE;" d="M74.933,148.5c-9.9,0-19.533-1.95-28.583-5.783c-8.75-3.7-16.6-9-23.333-15.734
	c-6.75-6.732-12.034-14.582-15.733-23.332C3.45,94.6,1.5,84.967,1.5,75.066c0-9.9,1.95-19.533,5.783-28.583
	c3.7-8.75,9-16.6,15.733-23.333S37.6,11.116,46.35,7.417c9.05-3.833,18.684-5.783,28.583-5.783c9.901,0,19.534,1.95,28.584,5.783
	c8.75,3.7,16.6,9,23.332,15.733c6.734,6.733,12.033,14.583,15.734,23.333c3.832,9.067,5.783,18.684,5.783,28.583
	c0,9.9-1.951,19.533-5.783,28.584c-3.701,8.75-9,16.6-15.734,23.332c-6.732,6.734-14.582,12.034-23.332,15.734
	C94.467,146.55,84.834,148.5,74.933,148.5z M74.933,24.966c-27.617,0-50.1,22.467-50.1,50.1c0,27.617,22.467,50.1,50.1,50.1
	c27.618,0,50.1-22.467,50.1-50.1C125.033,47.45,102.551,24.966,74.933,24.966z"/>
   <circle r="11.5" cx="74" cy="13.5" fill="#55C1AE" fill-opacity="0.15" style="filter:url(#dropshadow1)"/>
   <circle r="11.5" cx="74" cy="136.5" fill="#55C1AE" fill-opacity="0.15" style="filter:url(#dropshadow2)"/>
    <path style="fill:#55C1AE;" d="M85.977,136.775c0,6.443-5.225,11.666-11.667,11.666l0,0c-6.443,0-11.667-5.223-11.667-11.666l0,0
	c0-6.443,5.224-11.667,11.667-11.667l0,0C80.752,125.108,85.977,130.332,85.977,136.775L85.977,136.775z"/>
  <path style="fill:#55C1AE;" d="M85.977,13.275c0,6.443-5.225,11.667-11.667,11.667l0,0c-6.443,0-11.667-5.224-11.667-11.667l0,0
	c0-6.443,5.224-11.667,11.667-11.667l0,0C80.752,1.608,85.977,6.832,85.977,13.275L85.977,13.275z" />
</svg>
