<?xml version="1.0" standalone="no"?>
<!DOCTYPE svg PUBLIC "-//W3C//DTD SVG 20010904//EN"
 "http://www.w3.org/TR/2001/REC-SVG-20010904/DTD/svg10.dtd">
<svg version="1.0" xmlns="http://www.w3.org/2000/svg"
 width="600.000000pt" height="600.000000pt" viewBox="0 0 600.000000 600.000000"
 preserveAspectRatio="xMidYMid meet">
<metadata>
Created by potrace 1.14, written by Peter Selinger 2001-2017
</metadata>
<g transform="translate(0.000000,600.000000) scale(0.100000,-0.100000)"
fill="#000000" stroke="none">
<path d="M2760 5879 c-84 -8 -150 -18 -225 -31 -33 -6 -73 -12 -90 -14 -16 -2
-36 -6 -44 -9 -8 -3 -30 -8 -50 -11 -20 -3 -88 -21 -151 -40 -63 -19 -122 -36
-130 -38 -67 -18 -304 -118 -412 -174 -142 -74 -166 -89 -388 -240 -19 -13
-37 -27 -40 -31 -3 -4 -21 -18 -40 -31 -102 -71 -296 -261 -429 -420 -96 -115
-251 -336 -251 -358 0 -7 -4 -12 -8 -12 -4 0 -18 -19 -30 -42 -12 -24 -26 -50
-32 -58 -19 -30 -119 -247 -145 -315 -51 -134 -116 -344 -129 -415 -17 -90
-46 -251 -50 -280 -27 -177 -27 -587 0 -736 3 -15 12 -68 20 -118 54 -337 187
-699 367 -996 130 -215 257 -379 432 -554 152 -153 163 -163 304 -267 58 -44
111 -82 116 -87 35 -26 156 -99 248 -150 92 -51 326 -159 361 -167 6 -1 18 -5
26 -8 46 -20 169 -58 261 -80 201 -49 287 -64 474 -84 135 -15 520 -8 625 11
14 2 59 10 100 16 101 17 93 15 216 44 60 15 145 38 189 53 44 14 86 26 93 26
6 0 12 4 12 9 0 4 7 8 15 8 32 0 299 119 420 187 103 59 342 217 365 243 3 3
25 21 50 40 63 49 109 90 224 205 114 114 141 143 211 235 28 36 53 67 56 70
3 3 42 59 85 125 102 155 101 154 122 195 9 19 19 37 22 40 4 3 23 41 44 85
21 44 42 88 47 98 89 172 215 625 235 845 3 37 9 93 13 125 8 62 6 447 -3 485
-3 13 -8 53 -12 90 -3 37 -7 69 -9 72 -2 3 -6 26 -10 50 -8 63 -34 181 -57
270 -11 41 -21 79 -22 85 -1 5 -4 15 -8 20 -3 6 -13 35 -22 66 -8 30 -23 73
-33 95 -9 21 -17 41 -18 44 -16 75 -229 487 -257 498 -4 2 -8 10 -8 18 0 8 -4
14 -10 14 -5 0 -10 5 -10 11 0 31 -213 299 -334 420 -206 207 -342 313 -621
484 -229 141 -622 287 -915 339 -19 3 -46 8 -60 11 -13 3 -42 7 -65 10 -22 3
-69 11 -105 17 -75 12 -434 17 -530 7z"/>
</g>
</svg>
